<?xml version="1.0" encoding="utf-8"?>
<!-- Generator: Fusion 360, Shaper Origin Export Add-In, Version 1.4.1  -->
<svg enable-background="new 0 0 20 15" height="15cm" shaper:fusionaddin="version:1.4.1" version="1.1" viewBox="0 0 20 15" width="20cm" x="0cm" xml:space="preserve" xmlns="http://www.w3.org/2000/svg" xmlns:shaper="http://www.shapertools.com/namespaces/shaper" xmlns:xlink="http://www.w3.org/1999/xlink" y="0cm"><path d="M19.4,0 L0,0 -0,2.5 -0.3,2.5 -0.3,5.5 -0,5.5 -0,9.5 -0.3,9.5 -0.3,12.5 -0,12.5 -0,15 4.7,15 4.7,14.7 7.7,14.7 7.7,15 11.7,15 11.7,14.7 14.7,14.7 14.7,15 19.4,15 19.4,12.5 19.7,12.5 19.7,9.5 19.4,9.5 19.4,5.5 19.7,5.5 19.7,2.5 19.4,2.5 19.4,0z" fill="rgb(0,0,0)" shaper:cutDepth="0.003" shaper:pathType="exterior" transform="matrix(1,0,0,-1,0.3,15)" vector-effect="non-scaling-stroke" /></svg>