<?xml version="1.0" encoding="utf-8"?>
<!-- Generator: Fusion 360, Shaper Origin Export Add-In, Version 1.4.1  -->
<svg enable-background="new 0 0 20 17.5" height="17.5cm" shaper:fusionaddin="version:1.4.1" version="1.1" viewBox="0 0 20 17.5" width="20cm" x="0cm" xml:space="preserve" xmlns="http://www.w3.org/2000/svg" xmlns:shaper="http://www.shapertools.com/namespaces/shaper" xmlns:xlink="http://www.w3.org/1999/xlink" y="0cm"><path d="M19.4,15 L19.4,17.5 14.7,17.5 14.7,17.2 11.7,17.2 11.7,17.5 7.7,17.5 7.7,17.2 4.7,17.2 4.7,17.5 0,17.5 0,15 -0.3,15 -0.3,12 0,12 -0,8 -0.3,8 -0.3,5 0,5 0,-0 19.4,0 19.4,5 19.7,5 19.7,8 19.4,8 19.4,12 19.7,12 19.7,15 19.4,15z" fill="rgb(0,0,0)" shaper:cutDepth="0.003" shaper:pathType="exterior" transform="matrix(1,0,0,-1,0.3,17.5)" vector-effect="non-scaling-stroke" /><path d="M16.49,1.35 L13.09,1.35 13.09,0.65 16.49,0.65 16.49,1.35z" fill="rgb(255,255,255)" shaper:cutDepth="0.003" shaper:pathType="interior" stroke="rgb(0,0,0)" stroke-width="2" transform="matrix(1,0,0,-1,0.3,17.5)" vector-effect="non-scaling-stroke" /></svg>