<?xml version="1.0" encoding="utf-8"?>
<!-- Generator: Fusion 360, Shaper Origin Export Add-In, Version 1.4.1  -->
<svg enable-background="new 0 0 15.8154397 17.5" height="17.5cm" shaper:fusionaddin="version:1.4.1" version="1.1" viewBox="0 0 15.8154397 17.5" width="15.8154397cm" x="0cm" xml:space="preserve" xmlns="http://www.w3.org/2000/svg" xmlns:shaper="http://www.shapertools.com/namespaces/shaper" xmlns:xlink="http://www.w3.org/1999/xlink" y="0cm"><path d="M-0.5374646,12 L-0.8374646,12 -0.8374646,8 -0.5374646,8 -0.5374646,5 -0.8374646,5 -0.8374646,3.7088822 A0.75,0.75 0 0,0 -1.1535984,3.0971142 A1.1845603,1.1845603 125.3442909 0,1 -1.0849352,1.1194456 A0.75,0.75 58.6326454 0,0 -0.7376638,0.61453 A0.75,0.75 190.4062662 0,1 -0,-0 L14.1625354,0 14.1625354,5 13.8625354,5 13.8625354,8 14.1625354,8 14.1625354,12 13.8625354,12 13.8625354,15 14.1625354,15 14.1625354,17.5 11.6625354,17.5 11.6625354,17.2 8.6625354,17.2 8.6625354,17.5 4.6625354,17.5 4.6625354,17.2 1.6625354,17.2 1.6625354,17.5 -0.8374646,17.5 -0.8374646,15 -0.5374646,15 -0.5374646,12z" fill="rgb(0,0,0)" shaper:cutDepth="0.003" shaper:pathType="exterior" transform="matrix(1,0,0,-1,1.6529043,17.5)" vector-effect="non-scaling-stroke" /><path d="M-0.8374646,2.1308794 a0.3691206,0.3691206 0 1,1 0.7382412,0 a0.3691206,0.3691206 0 1,1 -0.7382412,0z" fill="rgb(255,255,255)" shaper:cutDepth="0.003" shaper:pathType="interior" stroke="rgb(0,0,0)" stroke-width="2" transform="matrix(1,0,0,-1,1.6529043,17.5)" vector-effect="non-scaling-stroke" /></svg>