<?xml version="1.0" encoding="UTF-8" standalone="no"?>
<!-- Generator: Fusion 360, Shaper Origin Export Add-In, Version 1.4.1  -->

<svg
   xmlns:shaper="http://www.shapertools.com/namespaces/shaper"
   xmlns:dc="http://purl.org/dc/elements/1.1/"
   xmlns:cc="http://creativecommons.org/ns#"
   xmlns:rdf="http://www.w3.org/1999/02/22-rdf-syntax-ns#"
   xmlns:svg="http://www.w3.org/2000/svg"
   xmlns="http://www.w3.org/2000/svg"
   xmlns:sodipodi="http://sodipodi.sourceforge.net/DTD/sodipodi-0.dtd"
   xmlns:inkscape="http://www.inkscape.org/namespaces/inkscape"
   enable-background="new 0 0 15.8154397 17.5"
   height="594mm"
   shaper:fusionaddin="version:1.4.1"
   version="1.1"
   viewBox="0 0 841.00002 593.99998"
   width="841mm"
   x="0cm"
   xml:space="preserve"
   y="0cm"
   id="svg6"
   sodipodi:docname="top-and-bottom.svg"
   inkscape:version="0.92.4 (5da689c313, 2019-01-14)"><metadata
     id="metadata12"><rdf:RDF><cc:Work
         rdf:about=""><dc:format>image/svg+xml</dc:format><dc:type
           rdf:resource="http://purl.org/dc/dcmitype/StillImage" /><dc:title></dc:title></cc:Work></rdf:RDF></metadata><defs
     id="defs10" /><sodipodi:namedview
     pagecolor="#ffffff"
     bordercolor="#666666"
     borderopacity="1"
     objecttolerance="10"
     gridtolerance="10"
     guidetolerance="10"
     inkscape:pageopacity="0"
     inkscape:pageshadow="2"
     inkscape:window-width="1680"
     inkscape:window-height="987"
     id="namedview8"
     showgrid="false"
     inkscape:document-units="mm"
     units="mm"
     inkscape:zoom="0.35680952"
     inkscape:cx="-236.63063"
     inkscape:cy="1139.1518"
     inkscape:window-x="-8"
     inkscape:window-y="-8"
     inkscape:window-maximized="1"
     inkscape:current-layer="svg6" /><path
     inkscape:connector-curvature="0"
     style="vector-effect:non-scaling-stroke;fill:none;stroke-width:0.1;stroke:#ff0000;stroke-opacity:1;stroke-miterlimit:4;stroke-dasharray:none"
     d="m 42.745765,69.127119 h -3 v 40.000001 h 3 v 30 h -3 v 12.91118 a 7.4999998,7.4999998 0 0 1 -3.16134,6.11768 11.845603,11.845603 0 0 0 0.68664,19.77668 7.4999998,7.4999998 0 0 1 3.47271,5.04916 7.4999998,7.4999998 0 0 0 7.37664,6.1453 H 189.74576 v -50 h -3 v -30 h 3 V 69.127119 h -3 v -30 h 3 v -25 h -25 v 3 h -29.99999 v -3 H 94.745765 v 3 h -30 v -3 h -25 v 25 h 3 z"
     shaper:cutDepth="0.003"
     shaper:pathType="exterior"
     id="path2" /><path
     inkscape:connector-curvature="0"
     style="vector-effect:non-scaling-stroke;fill:none;stroke:#ff0000;stroke-width:0.1;stroke-opacity:1;stroke-miterlimit:4;stroke-dasharray:none"
     d="m 39.745765,167.81832 a 3.6912061,3.6912061 0 1 0 7.38241,0 3.6912061,3.6912061 0 1 0 -7.38241,0 z"
     shaper:cutDepth="0.003"
     shaper:pathType="interior"
     id="path4" /></svg>